<svg id="Layer_1" data-name="Layer 1" xmlns="http://www.w3.org/2000/svg" viewBox="0 0 4.44 10.62"><defs><style>.cls-1{fill:#757575;}.cls-2{fill:#fff;}</style></defs><title>logo-download-light</title><path class="cls-1" d="M-1.7-8.62h-.94a.2.2,0,0,0-.2.2v1.6a.2.2,0,0,0,.2.2h1.2a.2.2,0,0,0,.2-.2V-8.16Zm-.14.6v-.5l.5.5Z" transform="translate(2.84 8.62)"/><path class="cls-2" d="M-2.09-8h-.45v-.24h.45Zm.55.48h-1v-.24h1Zm0,.48h-1v-.24h1Z" transform="translate(2.84 8.62)"/><polygon points="4.21 9.49 4.07 9.35 3.74 9.68 3.74 8.62 3.54 8.62 3.54 9.68 3.21 9.35 3.07 9.49 3.64 10.06 4.21 9.49"/><path d="M1.4,1.6v.2H.2V1.6H0v.2A.2.2,0,0,0,.2,2H1.4a.2.2,0,0,0,.2-.2V1.6Z" transform="translate(2.84 8.62)"/></svg>