<svg id="Layer_1" data-name="Layer 1" xmlns="http://www.w3.org/2000/svg" viewBox="0 0 27.23 26.91"><defs><style>.cls-1,.cls-2{fill:#440042;}.cls-1{fill-rule:evenodd;}.cls-3{fill:#fff;}</style></defs><title>logo-tableRecipient</title><path class="cls-1" d="M1,26.43a.47.47,0,0,1-.43-.26.49.49,0,0,1,0-.51L9.66,13.94l-.27-.45c-1.11-1.85-4.6-6.87-6.68-9.86C1,1.13,1,1.13,1,1A.48.48,0,0,1,1.46.48H25.18a1.57,1.57,0,0,1,1.57,1.57V24.87a1.56,1.56,0,0,1-1.57,1.56Z"/><path class="cls-2" d="M25.18,1a1.09,1.09,0,0,1,1.09,1.09V24.87A1.09,1.09,0,0,1,25.18,26H1l9.28-12s-.17-.27-.44-.73C8.16,10.52,1.46,1,1.46,1H25.18m0-1H1.46a1,1,0,0,0-1,1c0,.32,0,.32,1.82,2.94,2.08,3,5.55,8,6.66,9.84l.1.17L.2,25.37a1,1,0,0,0-.1,1,1,1,0,0,0,.86.53H25.18a2.05,2.05,0,0,0,2.05-2V2.05a2.05,2.05,0,0,0-2.05-2Z"/><path class="cls-3" d="M15.7,20.25h2.72V18.82a3.4,3.4,0,0,0-.68-6.73H16.38a.68.68,0,0,1,0-1.36h4.76V8H18.42V6.66H15.7V8.08a3.4,3.4,0,0,0,.68,6.73h1.36a.68.68,0,0,1,0,1.36H13v2.72H15.7Z"/></svg>