<svg id="Layer_1" data-name="Layer 1" xmlns="http://www.w3.org/2000/svg" viewBox="0 0 27.72 27.08"><defs><style>.cls-1,.cls-2{fill:#336426;}.cls-1{fill-rule:evenodd;}.cls-3{fill:#fff;}</style></defs><title>logo-tableFunder</title><path class="cls-1" d="M3,26.56A2.52,2.52,0,0,1,.52,24V3A2.52,2.52,0,0,1,3,.52H18.26a.52.52,0,0,1,.44.24l8.41,12.89a.51.51,0,0,1,0,.61l-9.42,12.1a.51.51,0,0,1-.41.2Z"/><path class="cls-2" d="M18.26,1l8.42,12.9L17.26,26H3a2,2,0,0,1-2-2V3A2,2,0,0,1,3,1H18.26m0-1H3A3,3,0,0,0,0,3V24a3,3,0,0,0,3,3H17.26a1,1,0,0,0,.82-.4l9.42-12.1a1.05,1.05,0,0,0,.05-1.21L19.13.47A1,1,0,0,0,18.26,0Z"/><path class="cls-3" d="M9.06,20.33h2.72V18.91a3.4,3.4,0,0,0-.68-6.73H9.74a.68.68,0,0,1,0-1.36H14.5V8.1H11.78V6.74H9.06V8.17a3.4,3.4,0,0,0,.68,6.73H11.1a.68.68,0,0,1,0,1.36H6.34V19H9.06Z"/></svg>